[imgw=http://i.imgur.com/oL3OO.jpg]

      Dolphin Tale 2011 720 BRRIP XVID AC3 - Xtreme Encode







General


Complete name                    : Dolphin Tale 2011 720 BRRIP XVID AC3 - Xtreme Encode.avi
Format                           : AVI
Format/Info                      : Audio Video Interleave
Format profile                   : OpenDML
Format settings                  : rec
File size                        : 2.69 GiB
Duration                         : 1h 52mn
Overall bit rate                 : 3 423 Kbps





Video


ID                               : 0
Format                           : MPEG-4 Visual
Format profile                   : Advanced Simple@L5
Format settings, BVOP            : 2
Format settings, QPel            : No
Format settings, GMC             : No warppoints
Format settings, Matrix          : Default (H.263)
Muxing mode                      : Packed bitstream
Codec ID                         : XVID
Codec ID/Hint                    : XviD
Duration                         : 1h 52mn
Bit rate                         : 2 777 Kbps
Width                            : 1 280 pixels
Height                           : 720 pixels
Display aspect ratio             : 16:9
Frame rate                       : 23.976 fps
Color space                      : YUV
Chroma subsampling               : 4:2:0
Bit depth                        : 8 bits
Scan type                        : Progressive
Compression mode                 : Lossy
Bits/(Pixel*Frame)               : 0.126
Stream size                      : 2.19 GiB (81%)







Audio


ID                               : 1
Format                           : AC-3
Format/Info                      : Audio Coding 3
Mode extension                   : CM (complete main)
Codec ID                         : 2000
Duration                         : 1h 52mn
Bit rate mode                    : Constant
Bit rate                         : 640 Kbps
Channel(s)                       : 6 channels
Channel positions                : Front: L C R, Side: L R, LFE
Sampling rate                    : 48.0 KHz
Bit depth                        : 16 bits
Compression mode                 : Lossy
Stream size                      : 516 MiB (19%)
Alignment                        : Aligned on interleaves
Interleave, duration             : 64 ms (1.53 video frames)
Interleave, preload duration     : 192 ms






SOURCE
Video : Dolphin Tale 720p BluRay x264-REFiNED

Audio : Dolphin Tale 720p BluRay x264-REFiNED



JUST A LITTLE MESS WITH THIS ADDES BIT OF CONTRAS 
RESIZED BIT TWEAKED BIT SHARPEN in 
SAT HUE and few othere things 




PLOT

A story centered on the friendship between a boy and a dolphin whose tail was lost in a crab trap.






Genres: Drama | Family


Director: Charles Martin Smith

Writers: Karen Janszen, Noam Dromi

Stars: Morgan Freeman, Ashley Judd and Harry Connick Jr.  



IMDB: http://www.imdb.com/title/tt1564349/

[imgw=http://i.imgur.com/FAEfP.jpg]
[imgw=http://i.imgur.com/aUr6z.jpg]
[imgw=http://i.imgur.com/KG0vg.jpg]
[imgw=http://i.imgur.com/4QGap.jpg]
[imgw=http://i.imgur.com/4zkZa.jpg]

    GREETS:

IMAGiNE / ELEKTRI4KA / FLAWL3SS  
ViSiON / CRYS / BMB / MiSTERE
AMB / FYA / Jamie111 / VISUALiSE  
ILLUMINATI / Rx / REFiLL / BHRG
TO MY FRIENDS  AND ALL OTHER GROUPS  :)